solid OpenSCAD_Model
  facet normal 0 0 1
    outer loop
      vertex 6 26 3
      vertex 0 0 3
      vertex 6 0 3
    endloop
  endfacet
  facet normal 0 0 1
    outer loop
      vertex -8 24 3
      vertex 6 26 3
      vertex -8 26 3
    endloop
  endfacet
  facet normal 0 0 1
    outer loop
      vertex 6 26 3
      vertex -8 24 3
      vertex 0 0 3
    endloop
  endfacet
  facet normal 1 0 0
    outer loop
      vertex 6 26 3
      vertex 6 24 0
      vertex 6 26 -9
    endloop
  endfacet
  facet normal 1 0 0
    outer loop
      vertex 6 26 3
      vertex 6 20 1.5
      vertex 6 24 0
    endloop
  endfacet
  facet normal 1 -0 0
    outer loop
      vertex 6 0 3
      vertex 6 20 1.5
      vertex 6 26 3
    endloop
  endfacet
  facet normal 1 0 0
    outer loop
      vertex 6 20 1.5
      vertex 6 0 3
      vertex 6 2 1.5
    endloop
  endfacet
  facet normal 1 0 0
    outer loop
      vertex 6 0 0
      vertex 6 2 1.5
      vertex 6 0 3
    endloop
  endfacet
  facet normal 1 0 0
    outer loop
      vertex 6 2 1.5
      vertex 6 0 0
      vertex 6 2 0
    endloop
  endfacet
  facet normal 1 0 0
    outer loop
      vertex 6 26 -9
      vertex 6 24 0
      vertex 6 24 -9
    endloop
  endfacet
  facet normal 1 0 0
    outer loop
      vertex 6 24 0
      vertex 6 20 1.5
      vertex 6 20 0
    endloop
  endfacet
  facet normal 0 0 -1
    outer loop
      vertex 6 0 0
      vertex 3 2 0
      vertex 6 2 0
    endloop
  endfacet
  facet normal -0 0 -1
    outer loop
      vertex 3 2 0
      vertex 0 0 0
      vertex 3 20 0
    endloop
  endfacet
  facet normal 0 0 -1
    outer loop
      vertex 0 0 0
      vertex 3 2 0
      vertex 6 0 0
    endloop
  endfacet
  facet normal 0 0 -1
    outer loop
      vertex 3 20 0
      vertex 6 24 0
      vertex 6 20 0
    endloop
  endfacet
  facet normal 0 0 -1
    outer loop
      vertex 3 20 0
      vertex -8 24 0
      vertex 6 24 0
    endloop
  endfacet
  facet normal 0 0 -1
    outer loop
      vertex -8 24 0
      vertex 3 20 0
      vertex 0 0 0
    endloop
  endfacet
  facet normal 0 -1 0
    outer loop
      vertex 0 0 0
      vertex 6 0 3
      vertex 0 0 3
    endloop
  endfacet
  facet normal 0 -1 -0
    outer loop
      vertex 6 0 3
      vertex 0 0 0
      vertex 6 0 0
    endloop
  endfacet
  facet normal 0 -1 0
    outer loop
      vertex -8 24 -9
      vertex 6 24 0
      vertex -8 24 0
    endloop
  endfacet
  facet normal 0 -1 -0
    outer loop
      vertex 6 24 0
      vertex -8 24 -9
      vertex 6 24 -9
    endloop
  endfacet
  facet normal -1 0 0
    outer loop
      vertex -8 24 0
      vertex -8 26 -9
      vertex -8 24 -9
    endloop
  endfacet
  facet normal -1 0 0
    outer loop
      vertex -8 26 -9
      vertex -8 24 0
      vertex -8 26 3
    endloop
  endfacet
  facet normal -1 -0 0
    outer loop
      vertex -8 26 3
      vertex -8 24 0
      vertex -8 24 3
    endloop
  endfacet
  facet normal 0 0 -1
    outer loop
      vertex -8 24 -9
      vertex 6 26 -9
      vertex 6 24 -9
    endloop
  endfacet
  facet normal -0 0 -1
    outer loop
      vertex 6 26 -9
      vertex -8 24 -9
      vertex -8 26 -9
    endloop
  endfacet
  facet normal 0 1 -0
    outer loop
      vertex 6 26 -9
      vertex -8 26 3
      vertex 6 26 3
    endloop
  endfacet
  facet normal 0 1 0
    outer loop
      vertex -8 26 3
      vertex 6 26 -9
      vertex -8 26 -9
    endloop
  endfacet
  facet normal 1 -0 0
    outer loop
      vertex 3 2 1.5
      vertex 3 20 0
      vertex 3 20 1.5
    endloop
  endfacet
  facet normal 1 0 0
    outer loop
      vertex 3 20 0
      vertex 3 2 1.5
      vertex 3 2 0
    endloop
  endfacet
  facet normal 0 0 -1
    outer loop
      vertex 3 2 1.5
      vertex 6 20 1.5
      vertex 6 2 1.5
    endloop
  endfacet
  facet normal -0 0 -1
    outer loop
      vertex 6 20 1.5
      vertex 3 2 1.5
      vertex 3 20 1.5
    endloop
  endfacet
  facet normal 0 -1 0
    outer loop
      vertex 3 20 0
      vertex 6 20 1.5
      vertex 3 20 1.5
    endloop
  endfacet
  facet normal 0 -1 -0
    outer loop
      vertex 6 20 1.5
      vertex 3 20 0
      vertex 6 20 0
    endloop
  endfacet
  facet normal 0 1 -0
    outer loop
      vertex 6 2 0
      vertex 3 2 1.5
      vertex 6 2 1.5
    endloop
  endfacet
  facet normal 0 1 0
    outer loop
      vertex 3 2 1.5
      vertex 6 2 0
      vertex 3 2 0
    endloop
  endfacet
  facet normal -0.948683 -0.316228 0
    outer loop
      vertex 0 0 0
      vertex -8 24 3
      vertex -8 24 0
    endloop
  endfacet
  facet normal -0.948683 -0.316228 0
    outer loop
      vertex -8 24 3
      vertex 0 0 0
      vertex 0 0 3
    endloop
  endfacet
endsolid OpenSCAD_Model
